<svg width="112" height="112" viewBox="0 0 112 112" fill="none" xmlns="http://www.w3.org/2000/svg">
<path d="M6.01637 31.8854C4.54672 34.5612 3.30671 37.3513 2.36521 40.2557C1.79113 41.6737 1.5615 43.1831 1.17112 44.6467C0.757787 46.0875 0.620007 47.6884 0.390375 49.2436L0.229632 50.4099L0.160743 50.9817L0.137779 51.5077L0.0688897 53.6345L0.0229632 54.6866L0 55.2126V55.487V55.5556V55.7386V55.7614V55.8072V55.9444L0.137779 58.2085L0.298522 60.4726C0.390375 61.2273 0.528154 61.9591 0.665934 62.7138L1.03335 64.9551C1.14816 65.7098 1.40076 66.4187 1.58446 67.1506C2.57188 72.4792 4.47783 77.7393 7.41712 82.4504C10.3335 87.1616 14.1224 91.3925 18.5543 94.8458C22.9862 98.2992 28.0611 100.998 33.4804 102.736L37.6138 103.834C39.0145 104.154 40.5301 104.337 41.9998 104.565L43.102 104.726L44.0664 104.794L45.9954 104.909L46.9598 104.954L47.442 104.977L47.6946 105H47.9932H48.062H48.1998L50.3354 104.909C61.7252 104.428 72.8853 99.74 81.2439 92.0557C85.4462 88.2365 88.9596 83.6854 91.6233 78.6769C92.9781 76.1612 94.0574 73.5998 94.9759 70.8326L95.6189 68.7057L95.9404 67.6308C96.0322 67.2878 96.0782 66.9905 96.1471 66.6703L96.5604 64.795L96.7671 63.8573L96.813 63.6286L96.9048 63.1712L96.9967 62.6452C97.3411 60.6327 96.6982 57.4309 96.1241 56.4704C95.573 55.5327 95.0448 55.6928 94.5856 56.4933C94.1033 57.3166 93.6441 58.7802 93.1159 60.4955C91.2329 66.1214 88.7529 71.9075 84.9869 77.0989C81.2439 82.2903 76.4905 87.0244 70.8416 90.4777C64.1363 94.7772 56.191 96.8355 48.3146 96.7669H48.1309H48.062L47.7176 96.744L46.9139 96.6983L45.3065 96.5839L43.699 96.4696C43.1938 96.401 42.7575 96.3095 42.2983 96.218C41.3797 96.0351 40.4612 95.8978 39.5427 95.7149L36.7182 94.9373C33.0211 93.7252 29.3929 92.2158 26.1781 89.9974C22.9632 87.8248 19.9321 85.3549 17.4521 82.3589C14.972 79.4088 12.7216 76.207 11.1831 72.6393C9.62159 69.0716 8.38158 65.3667 7.87639 61.5246L7.62379 60.0838C7.5549 59.6036 7.5549 59.1233 7.50898 58.643L7.41712 57.1794L7.3712 56.4475L7.34823 56.0816L7.32527 55.8987V55.8072V55.7614V55.7386L7.41712 52.6969C7.44009 52.1709 7.41712 51.5763 7.48601 51.1189L7.66972 49.7467C7.85343 48.8319 7.92232 47.9629 8.19787 47.0252L8.97862 44.258C9.20826 43.3203 9.66752 42.4512 9.96604 41.5593L10.4942 40.21C10.6779 39.7526 10.9305 39.341 11.1142 38.9064C13.755 33.4406 17.6128 28.5693 22.2973 24.7272C27.0507 20.9537 32.5848 18.2322 38.4634 16.7914C50.2436 13.8412 63.2178 16.3569 73.1609 23.5837C76.7431 26.1222 79.6595 28.8666 81.7032 30.1245C77.3172 34.7213 72.9542 39.3867 68.5682 43.9835C61.6563 49.1292 55.2955 54.961 49.0954 61.0215C44.0435 56.013 38.9456 51.0274 34.0774 45.836C33.5034 45.2185 32.0107 44.8526 31.3218 44.9669C29.9441 45.1727 30.0359 46.5907 30.633 48.2144C32.6537 53.5888 36.3967 58.826 40.7827 63.5829L46.5694 69.9178C47.8324 71.3129 49.991 71.4043 51.3688 70.1465L51.5984 69.9178C61.0592 61.3874 70.4971 52.8341 79.1543 43.3889L83.4714 39.4782C92.4729 31.1079 101.291 22.5317 109.328 13.2466C111.601 10.6166 112.91 7.82645 111.257 6.54574C109.741 5.37939 107.009 6.11122 104.322 8.4668C99.4767 12.6977 94.5856 16.9515 90.0388 21.5026C88.1329 23.4236 86.2499 25.3675 84.3669 27.3115C84.2062 26.8083 83.9765 26.2823 83.678 25.7106C82.5528 23.4236 80.3943 20.542 77.1335 17.8891C71.3008 13.1551 64.2511 9.74751 56.7421 8.21524L53.9406 7.80358L50.9784 7.4834L48.3146 7.34619H48.1539H48.062H47.8554L47.488 7.36905L46.7761 7.39192L45.3294 7.43766C44.365 7.50627 43.4005 7.46053 42.459 7.62062L39.6116 8.03228L38.1879 8.2381L36.7871 8.58115L34.0085 9.29011C22.1595 12.8578 11.9179 21.1824 6.01637 31.8854Z" fill="#F9CE35"/>
</svg>
