<svg width="100" height="100" viewBox="0 0 100 100" fill="none" xmlns="http://www.w3.org/2000/svg">
<circle cx="50" cy="50" r="50" fill="url(#paint0_linear_431_408)"/>
<path d="M80 42.9186V71.4797C80 74.0046 79.0019 76.4261 77.2252 78.2116C75.4486 79.997 73.0389 81 70.5263 81H29.4737C26.9611 81 24.5514 79.997 22.7748 78.2116C20.9981 76.4261 20 74.0046 20 71.4797V42.9186C20 39.3961 21.9042 36.3179 24.7368 34.674L24.7274 34.6613L49.9937 20L75.2789 34.6708L75.2758 34.6804C76.7129 35.5168 77.9058 36.7182 78.735 38.1641C79.5642 39.6101 80.0005 41.2498 80 42.9186ZM25.4221 38.0506L50 54.0892L74.5779 38.0506L49.9937 23.6653L25.4221 38.0506ZM50 57.8719L23.5811 40.6338C23.3009 41.3626 23.1574 42.1373 23.1579 42.9186V71.4797C23.1579 73.163 23.8233 74.7773 25.0077 75.9676C26.1922 77.1579 27.7986 77.8265 29.4737 77.8265H70.5263C72.2014 77.8265 73.8078 77.1579 74.9923 75.9676C76.1767 74.7773 76.8421 73.163 76.8421 71.4797V42.9186C76.8421 42.1126 76.6937 41.3414 76.4189 40.6338L50 57.8687V57.8719Z" fill="white"/>
<defs>
<linearGradient id="paint0_linear_431_408" x1="14" y1="86" x2="85" y2="14" gradientUnits="userSpaceOnUse">
<stop stop-color="#1D96C7"/>
<stop offset="1" stop-color="#35AEE2"/>
</linearGradient>
</defs>
</svg>
