<svg width="25" height="22" viewBox="0 0 25 22" fill="none" xmlns="http://www.w3.org/2000/svg">
<path d="M2.28774 2.30089C-0.76258 5.36657 -0.76258 10.3589 2.28774 13.4213L10.7328 21.9154C10.7878 21.9707 10.8623 22 10.94 22C11.0177 22 11.0922 21.9707 11.1473 21.9154L12.3421 20.7145C12.3965 20.6596 12.427 20.5853 12.427 20.5078C12.427 20.4304 12.3965 20.356 12.3421 20.3012L3.89709 11.8071C2.84794 10.7527 2.27155 9.34999 2.27155 7.85946C2.27155 6.36893 2.84794 4.96627 3.89709 3.91509C4.94625 2.86066 6.34188 2.28137 7.82171 2.28137C9.30477 2.28137 10.6972 2.86066 11.7463 3.91509L20.3565 12.5719L21.7522 13.9745C23.0571 15.2861 23.0571 17.4177 21.7522 18.7293C21.1207 19.3639 20.282 19.7121 19.3883 19.7121C18.4946 19.7121 17.6559 19.3639 17.0245 18.7293L8.48229 10.1408C8.26857 9.92277 8.14876 9.63638 8.14876 9.33047V9.32721C8.14876 9.0213 8.26857 8.73816 8.48229 8.52337C8.69924 8.30532 8.9842 8.18816 9.28858 8.18816C9.58973 8.18816 9.87468 8.30858 10.0884 8.52337L17.0666 15.5432C17.1216 15.5985 17.1961 15.6278 17.2738 15.6278C17.3515 15.6278 17.426 15.5985 17.4811 15.5432L18.6759 14.3423C18.7303 14.2874 18.7608 14.2131 18.7608 14.1356C18.7608 14.0582 18.7303 13.9839 18.6759 13.929L11.6945 6.91243C11.0501 6.26479 10.1953 5.91006 9.28534 5.91006C8.37543 5.91006 7.51732 6.26805 6.87617 6.91243C5.5453 8.25 5.54854 10.424 6.87617 11.7615L7.70837 12.5947L15.4184 20.3467C15.9388 20.8729 16.558 21.2899 17.24 21.5737C17.9221 21.8575 18.6534 22.0024 19.3916 22C20.8908 22 22.2994 21.4109 23.3583 20.3467C24.4528 19.2435 25 17.7985 25 16.3535C25 14.9086 24.4528 13.4636 23.3583 12.3636L13.3524 2.30089C11.8758 0.820127 9.9103 1.14441e-05 7.82171 1.14441e-05C5.72987 -0.0032444 3.76433 0.816874 2.28774 2.30089Z" fill="#B6BCB9"/>
</svg>
