<svg width="508" height="571" viewBox="0 0 508 571" fill="none" xmlns="http://www.w3.org/2000/svg">
<g filter="url(#filter0_d_251_208)">
<path fill-rule="evenodd" clip-rule="evenodd" d="M277.024 42.6138C347.617 56.8536 356.627 147.166 399.058 202.457C429.863 242.599 461.159 262.625 488.368 318.017C511.105 389.553 518.411 439.68 463.087 492.938C407.815 546.146 355.219 530.828 277.024 521.471C215.019 514.051 147.096 524.654 100.867 484.827C53.1674 443.734 42.9767 379.049 40.8638 318.017C38.6597 254.346 46.519 189.353 88.9262 139.899C135.742 85.303 204.385 27.9615 277.024 42.6138Z" fill="url(#paint0_linear_251_208)"/>
</g>
<defs>
<filter id="filter0_d_251_208" x="0.528809" y="0.291504" width="544.869" height="570.649" filterUnits="userSpaceOnUse" color-interpolation-filters="sRGB">
<feFlood flood-opacity="0" result="BackgroundImageFix"/>
<feColorMatrix in="SourceAlpha" type="matrix" values="0 0 0 0 0 0 0 0 0 0 0 0 0 0 0 0 0 0 127 0" result="hardAlpha"/>
<feOffset/>
<feGaussianBlur stdDeviation="20"/>
<feComposite in2="hardAlpha" operator="out"/>
<feColorMatrix type="matrix" values="0 0 0 0 1 0 0 0 0 1 0 0 0 0 1 0 0 0 0.25 0"/>
<feBlend mode="normal" in2="BackgroundImageFix" result="effect1_dropShadow_251_208"/>
<feBlend mode="normal" in="SourceGraphic" in2="effect1_dropShadow_251_208" result="shape"/>
</filter>
<linearGradient id="paint0_linear_251_208" x1="138.233" y1="80.6578" x2="443.747" y2="499.152" gradientUnits="userSpaceOnUse">
<stop stop-color="#4733FF"/>
<stop offset="1" stop-color="#FEDE85"/>
</linearGradient>
</defs>
</svg>
