<svg width="24" height="24" viewBox="0 0 24 24" fill="none" xmlns="http://www.w3.org/2000/svg">
<path d="M23.8474 11.5117C23.633 11.2049 18.5244 4 11.9998 4C5.47524 4 0.366409 11.2049 0.152236 11.5114C-0.0508268 11.8025 -0.0508268 12.1972 0.152236 12.4883C0.366409 12.7951 5.47524 20 11.9998 20C18.5244 20 23.633 12.795 23.8474 12.4885C24.0508 12.1975 24.0508 11.8025 23.8474 11.5117ZM11.9998 18.3448C7.19377 18.3448 3.03121 13.5628 1.79901 11.9994C3.02962 10.4347 7.18346 5.65516 11.9998 5.65516C16.8057 5.65516 20.9679 10.4364 22.2007 12.0006C20.97 13.5652 16.8162 18.3448 11.9998 18.3448Z" fill="#B6BCB9"/>
<path d="M12.0003 7.03455C9.38267 7.03455 7.25299 9.26214 7.25299 12.0001C7.25299 14.738 9.38267 16.9656 12.0003 16.9656C14.6179 16.9656 16.7476 14.738 16.7476 12.0001C16.7476 9.26214 14.6179 7.03455 12.0003 7.03455ZM12.0003 15.3104C10.2551 15.3104 8.83545 13.8254 8.83545 12.0001C8.83545 10.1747 10.2552 8.68976 12.0003 8.68976C13.7454 8.68976 15.1651 10.1747 15.1651 12.0001C15.1651 13.8254 13.7454 15.3104 12.0003 15.3104Z" fill="#B6BCB9"/>
</svg>
