<svg width="375" height="373" viewBox="0 0 375 373" fill="none" xmlns="http://www.w3.org/2000/svg">
<path fill-rule="evenodd" clip-rule="evenodd" d="M170.006 0.135108C208.971 -1.72677 244.87 15.9361 278.474 35.7469C315.445 57.5419 360.759 77.9813 372.215 119.342C383.615 160.498 350.22 198.778 334.647 238.543C320.233 275.351 315.448 318.07 284.674 342.879C253.249 368.213 209.944 377.126 170.006 371.272C132.928 365.838 106.682 335.898 77.4092 312.5C49.7263 290.372 15.7184 272.441 4.36197 238.869C-7.04722 205.142 6.26297 169.277 17.5359 135.504C28.7176 102.004 42.4072 69.2123 68.8167 45.7651C97.1802 20.583 132.121 1.94541 170.006 0.135108Z" fill="url(#paint0_linear_605_140)"/>
<defs>
<linearGradient id="paint0_linear_605_140" x1="90.6435" y1="298.777" x2="274.623" y2="45.9265" gradientUnits="userSpaceOnUse">
<stop stop-color="#9E7CF4"/>
<stop offset="1" stop-color="#FE8B8D"/>
</linearGradient>
</defs>
</svg>
