<svg width="527" height="461" viewBox="0 0 527 461" fill="none" xmlns="http://www.w3.org/2000/svg">
<g filter="url(#filter0_d_251_216)">
<path fill-rule="evenodd" clip-rule="evenodd" d="M272.331 40.0177C332.909 38.9995 380.943 82.0725 421.196 123.091C458.589 161.195 483.214 207.018 486.176 257.929C489.32 311.955 485.513 375.273 437.76 407.771C391.91 438.973 329.637 405.458 272.331 403.458C219.235 401.604 163.679 422.948 119.178 396.65C67.1617 365.91 24.0365 314.155 26.069 257.929C28.0704 202.565 69.3945 161.8 113.14 123.091C156.081 85.0937 212.31 41.0266 272.331 40.0177Z" fill="url(#paint0_linear_251_216)"/>
</g>
<defs>
<filter id="filter0_d_251_216" x="-14" y="0" width="541" height="461" filterUnits="userSpaceOnUse" color-interpolation-filters="sRGB">
<feFlood flood-opacity="0" result="BackgroundImageFix"/>
<feColorMatrix in="SourceAlpha" type="matrix" values="0 0 0 0 0 0 0 0 0 0 0 0 0 0 0 0 0 0 127 0" result="hardAlpha"/>
<feOffset/>
<feGaussianBlur stdDeviation="20"/>
<feComposite in2="hardAlpha" operator="out"/>
<feColorMatrix type="matrix" values="0 0 0 0 1 0 0 0 0 1 0 0 0 0 1 0 0 0 0.25 0"/>
<feBlend mode="normal" in2="BackgroundImageFix" result="effect1_dropShadow_251_216"/>
<feBlend mode="normal" in="SourceGraphic" in2="effect1_dropShadow_251_216" result="shape"/>
</filter>
<linearGradient id="paint0_linear_251_216" x1="148.98" y1="94.4286" x2="452.334" y2="393.1" gradientUnits="userSpaceOnUse">
<stop stop-color="#CEC8FF"/>
<stop offset="1" stop-color="#EF3CFF"/>
</linearGradient>
</defs>
</svg>
