<svg width="318" height="67" viewBox="0 0 318 67" fill="none" xmlns="http://www.w3.org/2000/svg">
<g filter="url(#filter0_f_1676_1047)">
<path d="M7 7L8.34708 11.1459H12.7063L9.17963 13.7082L10.5267 17.8541L7 15.2918L3.47329 17.8541L4.82037 13.7082L1.29366 11.1459H5.65292L7 7Z" fill="white"/>
</g>
<g filter="url(#filter1_f_1676_1047)">
<path d="M29 37L30.3471 41.1459H34.7063L31.1796 43.7082L32.5267 47.8541L29 45.2918L25.4733 47.8541L26.8204 43.7082L23.2937 41.1459H27.6529L29 37Z" fill="white"/>
</g>
<g filter="url(#filter2_f_1676_1047)">
<path d="M50 1L51.3471 5.1459H55.7063L52.1796 7.7082L53.5267 11.8541L50 9.2918L46.4733 11.8541L47.8204 7.7082L44.2937 5.1459H48.6529L50 1Z" fill="white"/>
</g>
<g filter="url(#filter3_f_1676_1047)">
<path d="M284 1L285.347 5.1459H289.706L286.18 7.7082L287.527 11.8541L284 9.2918L280.473 11.8541L281.82 7.7082L278.294 5.1459H282.653L284 1Z" fill="white"/>
</g>
<g filter="url(#filter4_f_1676_1047)">
<path d="M311 55L312.347 59.1459H316.706L313.18 61.7082L314.527 65.8541L311 63.2918L307.473 65.8541L308.82 61.7082L305.294 59.1459H309.653L311 55Z" fill="white"/>
</g>
<g filter="url(#filter5_f_1676_1047)">
<path d="M264 43L265.347 47.1459H269.706L266.18 49.7082L267.527 53.8541L264 51.2918L260.473 53.8541L261.82 49.7082L258.294 47.1459H262.653L264 43Z" fill="white"/>
</g>
<defs>
<filter id="filter0_f_1676_1047" x="0.293701" y="6" width="13.4126" height="12.854" filterUnits="userSpaceOnUse" color-interpolation-filters="sRGB">
<feFlood flood-opacity="0" result="BackgroundImageFix"/>
<feBlend mode="normal" in="SourceGraphic" in2="BackgroundImageFix" result="shape"/>
<feGaussianBlur stdDeviation="0.5" result="effect1_foregroundBlur_1676_1047"/>
</filter>
<filter id="filter1_f_1676_1047" x="22.2937" y="36" width="13.4126" height="12.854" filterUnits="userSpaceOnUse" color-interpolation-filters="sRGB">
<feFlood flood-opacity="0" result="BackgroundImageFix"/>
<feBlend mode="normal" in="SourceGraphic" in2="BackgroundImageFix" result="shape"/>
<feGaussianBlur stdDeviation="0.5" result="effect1_foregroundBlur_1676_1047"/>
</filter>
<filter id="filter2_f_1676_1047" x="43.2937" y="0" width="13.4126" height="12.854" filterUnits="userSpaceOnUse" color-interpolation-filters="sRGB">
<feFlood flood-opacity="0" result="BackgroundImageFix"/>
<feBlend mode="normal" in="SourceGraphic" in2="BackgroundImageFix" result="shape"/>
<feGaussianBlur stdDeviation="0.5" result="effect1_foregroundBlur_1676_1047"/>
</filter>
<filter id="filter3_f_1676_1047" x="277.294" y="0" width="13.4126" height="12.854" filterUnits="userSpaceOnUse" color-interpolation-filters="sRGB">
<feFlood flood-opacity="0" result="BackgroundImageFix"/>
<feBlend mode="normal" in="SourceGraphic" in2="BackgroundImageFix" result="shape"/>
<feGaussianBlur stdDeviation="0.5" result="effect1_foregroundBlur_1676_1047"/>
</filter>
<filter id="filter4_f_1676_1047" x="304.294" y="54" width="13.4126" height="12.854" filterUnits="userSpaceOnUse" color-interpolation-filters="sRGB">
<feFlood flood-opacity="0" result="BackgroundImageFix"/>
<feBlend mode="normal" in="SourceGraphic" in2="BackgroundImageFix" result="shape"/>
<feGaussianBlur stdDeviation="0.5" result="effect1_foregroundBlur_1676_1047"/>
</filter>
<filter id="filter5_f_1676_1047" x="257.294" y="42" width="13.4126" height="12.854" filterUnits="userSpaceOnUse" color-interpolation-filters="sRGB">
<feFlood flood-opacity="0" result="BackgroundImageFix"/>
<feBlend mode="normal" in="SourceGraphic" in2="BackgroundImageFix" result="shape"/>
<feGaussianBlur stdDeviation="0.5" result="effect1_foregroundBlur_1676_1047"/>
</filter>
</defs>
</svg>
