<svg width="38" height="39" viewBox="0 0 38 39" fill="none" xmlns="http://www.w3.org/2000/svg">
<path fill-rule="evenodd" clip-rule="evenodd" d="M7.95512 0.14284C7.80199 0.221002 7.60981 0.402296 7.5281 0.545606C7.38727 0.792618 7.37361 1.35846 7.26651 11.363C7.20441 17.1693 7.15259 22.9722 7.1513 24.2582L7.14897 26.5966L4.03575 26.5967C0.563967 26.5968 0.549667 26.5989 0.180981 27.1576C0.00149852 27.4295 -0.00139376 27.4726 0.000213068 29.8416C0.00198057 32.5247 0.0499443 33.0252 0.411158 34.1279C1.1368 36.3434 2.88551 38.0416 5.19692 38.7756L5.90369 39H18.9591H32.0146L32.6772 38.821C35.2874 38.1157 37.3255 35.9282 37.8731 33.2439C37.9862 32.6897 38 30.8861 38 16.6475V0.672975L37.8322 0.457033C37.452 -0.0323534 38.5327 0.000342976 22.7191 0.000505644C9.08817 0.000586978 8.21719 0.00896438 7.95512 0.14284ZM35.8925 17.4262L35.871 32.6559L35.6495 33.3173C34.9331 35.4572 33.0826 36.8446 30.9448 36.8446C28.8522 36.8446 27.0796 35.5504 26.2797 33.4384C26.0796 32.9099 26.075 32.8488 26.0325 30.12C25.9911 27.4733 25.981 27.3291 25.8226 27.1107C25.7311 26.9844 25.5322 26.8172 25.3807 26.7391C25.124 26.6065 24.5661 26.5968 17.1722 26.5967L9.23913 26.5966L9.28147 23.8922C9.33835 20.2619 9.47911 5.99734 9.47903 3.88404L9.47887 2.19636H22.6964H35.914L35.8925 17.4262ZM14.7022 5.93968C14.3482 6.02394 14.0032 6.41011 13.9303 6.80369C13.8866 7.03915 13.9147 7.18506 14.0549 7.45273C14.3671 8.04859 14.3896 8.05249 17.5251 8.05208C20.1205 8.05184 20.3001 8.04232 20.5419 7.893C21.3241 7.41028 21.1411 6.18856 20.2492 5.93764C19.907 5.84143 15.1077 5.84322 14.7022 5.93968ZM14.5737 13.1294C13.78 13.4793 13.7126 14.5273 14.4518 15.0257L14.7248 15.2098H22.2461C29.3771 15.2098 29.7817 15.2021 30.0412 15.0612C30.7946 14.6522 30.7772 13.5197 30.0122 13.1679C29.7009 13.0248 29.3157 13.0174 22.2531 13.0187C16.2119 13.0199 14.7752 13.0406 14.5737 13.1294ZM14.4518 20.3552C13.7043 20.8593 13.7816 21.9125 14.5915 22.255C14.9838 22.421 29.5235 22.4216 29.9082 22.2557C30.7565 21.8898 30.8348 20.7507 30.0412 20.3198C29.7817 20.1789 29.3771 20.1712 22.2461 20.1712H14.7248L14.4518 20.3552ZM23.8802 30.8869C23.9082 32.5088 23.9466 33.0914 24.0508 33.4693C24.3676 34.6192 24.8408 35.5651 25.5243 36.4146L25.8723 36.8472L15.9684 36.8255L6.06437 36.804L5.49378 36.5927C4.06435 36.0632 2.87209 34.8168 2.39052 33.3485C2.23555 32.876 2.21345 32.6009 2.18606 30.8056L2.15545 28.7926H12.9998H23.8441L23.8802 30.8869Z" fill="#F4F6F8"/>
</svg>
