<svg width="561" height="437" viewBox="0 0 561 437" fill="none" xmlns="http://www.w3.org/2000/svg">
<g filter="url(#filter0_d_692_135)">
<path fill-rule="evenodd" clip-rule="evenodd" d="M277.666 33.6015C348.479 28.7728 426.48 33.5059 476.894 66.7602C527.354 100.045 525.797 151.452 527.771 198.577C529.828 247.683 534.727 299.599 488.253 337.91C437.592 379.672 358.062 410.925 277.666 404.752C201.633 398.914 158.258 348.707 110.871 308.935C71.2913 275.716 31.0835 240.872 32.0159 198.577C32.9373 156.78 71.3271 121.17 115.666 91.3921C160.425 61.3327 214.226 37.9274 277.666 33.6015Z" fill="url(#paint0_linear_692_135)"/>
</g>
<defs>
<filter id="filter0_d_692_135" x="0.742138" y="0.742138" width="559.516" height="436.047" filterUnits="userSpaceOnUse" color-interpolation-filters="sRGB">
<feFlood flood-opacity="0" result="BackgroundImageFix"/>
<feColorMatrix in="SourceAlpha" type="matrix" values="0 0 0 0 0 0 0 0 0 0 0 0 0 0 0 0 0 0 127 0" result="hardAlpha"/>
<feOffset/>
<feGaussianBlur stdDeviation="15.6289"/>
<feComposite in2="hardAlpha" operator="out"/>
<feColorMatrix type="matrix" values="0 0 0 0 1 0 0 0 0 1 0 0 0 0 1 0 0 0 0.25 0"/>
<feBlend mode="normal" in2="BackgroundImageFix" result="effect1_dropShadow_692_135"/>
<feBlend mode="normal" in="SourceGraphic" in2="effect1_dropShadow_692_135" result="shape"/>
</filter>
<linearGradient id="paint0_linear_692_135" x1="485.239" y1="75.2662" x2="140.149" y2="345.354" gradientUnits="userSpaceOnUse">
<stop offset="0.030888" stop-color="#FFA53C"/>
<stop offset="1" stop-color="#C4FFBF"/>
</linearGradient>
</defs>
</svg>
