<svg width="407" height="407" viewBox="0 0 407 407" fill="none" xmlns="http://www.w3.org/2000/svg">
<g filter="url(#filter0_d_586_177)">
<path fill-rule="evenodd" clip-rule="evenodd" d="M224.987 43.9724C274.261 57.7923 275.281 116.741 302.114 155.245C321.596 183.2 342.623 198.187 358.644 235.761C370.528 283.475 372.73 316.344 330.279 347.14C287.868 377.906 251.437 364.567 196.475 353.405C152.894 344.554 104.037 346.962 73.5859 318.202C42.1659 288.527 38.7819 246.062 40.9158 206.485C43.1418 165.198 52.5918 123.714 85.6454 94.5313C122.136 62.3149 174.286 29.7521 224.987 43.9724Z" fill="url(#paint0_linear_586_177)"/>
</g>
<defs>
<filter id="filter0_d_586_177" x="0.4039" y="0.54248" width="405.684" height="405.562" filterUnits="userSpaceOnUse" color-interpolation-filters="sRGB">
<feFlood flood-opacity="0" result="BackgroundImageFix"/>
<feColorMatrix in="SourceAlpha" type="matrix" values="0 0 0 0 0 0 0 0 0 0 0 0 0 0 0 0 0 0 127 0" result="hardAlpha"/>
<feOffset/>
<feGaussianBlur stdDeviation="20"/>
<feComposite in2="hardAlpha" operator="out"/>
<feColorMatrix type="matrix" values="0 0 0 0 1 0 0 0 0 1 0 0 0 0 1 0 0 0 0.25 0"/>
<feBlend mode="normal" in2="BackgroundImageFix" result="effect1_dropShadow_586_177"/>
<feBlend mode="normal" in="SourceGraphic" in2="effect1_dropShadow_586_177" result="shape"/>
</filter>
<linearGradient id="paint0_linear_586_177" x1="124.181" y1="59.4762" x2="288.763" y2="364.674" gradientUnits="userSpaceOnUse">
<stop stop-color="#4733FF"/>
<stop offset="1" stop-color="#FEDE85"/>
</linearGradient>
</defs>
</svg>
