<svg width="364" height="392" viewBox="0 0 364 392" fill="none" xmlns="http://www.w3.org/2000/svg">
<g filter="url(#filter0_d_618_157)">
<path fill-rule="evenodd" clip-rule="evenodd" d="M149.305 10.1387C192.341 7.70148 227.683 37.8193 260.661 65.5774C298.092 97.084 337.888 128.954 347.464 176.934C358.979 234.633 357.626 302.048 316.193 343.822C274.685 385.672 207.48 386.209 149.305 376.724C100.01 368.687 57.3843 338.27 29.2066 297.032C5.50926 262.351 8.84906 218.752 12.7884 176.934C16.237 140.325 26.5955 105.97 49.8853 77.5143C76.2442 45.3091 107.755 12.4919 149.305 10.1387Z" fill="url(#paint0_linear_618_157)"/>
</g>
<defs>
<filter id="filter0_d_618_157" x="0" y="0" width="363.682" height="391.726" filterUnits="userSpaceOnUse" color-interpolation-filters="sRGB">
<feFlood flood-opacity="0" result="BackgroundImageFix"/>
<feColorMatrix in="SourceAlpha" type="matrix" values="0 0 0 0 0 0 0 0 0 0 0 0 0 0 0 0 0 0 127 0" result="hardAlpha"/>
<feOffset/>
<feGaussianBlur stdDeviation="5"/>
<feComposite in2="hardAlpha" operator="out"/>
<feColorMatrix type="matrix" values="0 0 0 0 0.956863 0 0 0 0 0.964706 0 0 0 0 0.972549 0 0 0 1 0"/>
<feBlend mode="normal" in2="BackgroundImageFix" result="effect1_dropShadow_618_157"/>
<feBlend mode="normal" in="SourceGraphic" in2="effect1_dropShadow_618_157" result="shape"/>
</filter>
<linearGradient id="paint0_linear_618_157" x1="181.841" y1="10" x2="181.841" y2="381.726" gradientUnits="userSpaceOnUse">
<stop stop-color="#EB00FF"/>
<stop offset="1" stop-color="#F9CE35"/>
</linearGradient>
</defs>
</svg>
