<?xml version="1.0" encoding="utf-8"?><svg width="38" height="39" fill="none" xmlns="http://www.w3.org/2000/svg" viewBox="0 0 38 39"><path fill-rule="evenodd" clip-rule="evenodd" d="M7.955.143a1.21 1.21 0 00-.427.403c-.14.247-.154.812-.261 10.817-.063 5.806-.114 11.61-.116 12.895l-.002 2.339H4.036c-3.472 0-3.486.002-3.855.56-.18.273-.182.316-.18 2.685.001 2.683.049 3.183.41 4.286.726 2.215 2.475 3.914 4.786 4.648l.707.224H32.015l.662-.179c2.61-.705 4.648-2.893 5.196-5.577.113-.554.127-2.358.127-16.596V.673l-.168-.216c-.38-.49.7-.457-15.113-.456C9.09 0 8.217.009 7.955.143zm27.937 17.283l-.021 15.23-.221.661c-.717 2.14-2.567 3.528-4.705 3.528-2.093 0-3.865-1.295-4.665-3.407-.2-.528-.205-.59-.248-3.318-.04-2.647-.051-2.79-.21-3.01a1.485 1.485 0 00-.441-.37c-.257-.133-.815-.143-8.209-.143H9.24l.042-2.705c.057-3.63.198-17.895.198-20.008V2.196H35.914l-.022 15.23zM14.702 5.94c-.354.084-.699.47-.772.864-.043.235-.015.381.125.649.312.596.335.6 3.47.6 2.596-.001 2.775-.01 3.017-.16.782-.483.6-1.704-.293-1.955-.342-.097-5.141-.095-5.547.002zm-.128 7.19c-.794.35-.861 1.397-.122 1.896l.273.184h7.521c7.131 0 7.536-.008 7.795-.149.754-.409.736-1.541-.029-1.893-.311-.143-.696-.15-7.759-.15-6.041.002-7.478.023-7.68.111zm-.122 7.225c-.748.504-.67 1.558.14 1.9.392.166 14.931.167 15.316 0 .848-.365.927-1.504.133-1.935-.26-.141-.664-.149-7.795-.149h-7.521l-.273.184zm9.428 10.532c.028 1.622.067 2.204.17 2.582.318 1.15.79 2.096 1.474 2.946l.348.432-9.904-.022-9.904-.021-.57-.211c-1.43-.53-2.622-1.776-3.103-3.245-.155-.472-.178-.747-.205-2.542l-.03-2.013h21.688l.036 2.094z" fill="#F4F6F8"/></svg>